<svg width="23.000000" height="22.349976" viewBox="0 0 23 22.35" fill="none" xmlns="http://www.w3.org/2000/svg" xmlns:xlink="http://www.w3.org/1999/xlink">
	<desc>
			Created with Pixso.
	</desc>
	<defs/>
	<path id="“" d="M17.5 0C18.5 0 19.43 0.38 20.29 1.14C21.13 1.94 21.8 2.98 22.3 4.25C22.76 5.51 23 6.86 23 8.29C23 10.5 22.61 12.56 21.85 14.5C21.05 16.46 20.08 18.11 18.95 19.45C17.81 20.81 16.73 21.78 15.7 22.35L15.65 22.35L13.9 20.75L13.9 20.04C14.73 19.28 15.51 18.18 16.25 16.75C16.98 15.35 17.35 13.61 17.35 11.55C17.35 10.48 17.2 9.61 16.9 8.94C16.6 8.28 16.15 7.54 15.55 6.75C15.05 6.11 14.68 5.56 14.45 5.09C14.21 4.63 14.1 4.06 14.1 3.39C14.1 2.39 14.43 1.58 15.1 0.94C15.73 0.31 16.53 0 17.5 0ZM3.59 0C4.59 0 5.51 0.38 6.34 1.14C7.18 1.94 7.84 2.98 8.34 4.25C8.81 5.51 9.05 6.86 9.05 8.29C9.05 10.5 8.66 12.56 7.9 14.5C7.09 16.46 6.13 18.13 5 19.5C3.86 20.86 2.78 21.81 1.75 22.35L1.7 22.35L0 20.75L0 20.04C0.83 19.28 1.61 18.18 2.34 16.75C3.08 15.35 3.45 13.61 3.45 11.55C3.45 10.48 3.29 9.61 3 8.94C2.7 8.28 2.25 7.54 1.65 6.75C1.15 6.11 0.78 5.56 0.54 5.09C0.31 4.63 0.2 4.06 0.2 3.39C0.2 2.39 0.53 1.58 1.2 0.94C1.83 0.31 2.63 0 3.59 0Z" fill="#FFFFFF" fill-opacity="1.000000" fill-rule="nonzero"/>
</svg>
