<svg width="23.000000" height="22.350006" viewBox="0 0 23 22.35" fill="none" xmlns="http://www.w3.org/2000/svg" xmlns:xlink="http://www.w3.org/1999/xlink">
	<desc>
			Created with Pixso.
	</desc>
	<defs/>
	<path id="“" d="M5.5 22.35C4.5 22.35 3.56 21.96 2.7 21.2C1.86 20.4 1.2 19.36 0.7 18.1C0.23 16.83 0 15.48 0 14.05C0 11.85 0.38 9.78 1.15 7.85C1.95 5.88 2.91 4.23 4.04 2.89C5.18 1.53 6.26 0.56 7.29 0L7.35 0L9.1 1.6L9.1 2.29C8.26 3.06 7.48 4.16 6.75 5.6C6.01 7 5.65 8.73 5.65 10.8C5.65 11.86 5.79 12.73 6.1 13.4C6.4 14.06 6.84 14.8 7.45 15.6C7.95 16.23 8.31 16.78 8.54 17.25C8.78 17.71 8.9 18.28 8.9 18.95C8.9 19.95 8.56 20.76 7.9 21.4C7.26 22.03 6.46 22.35 5.5 22.35ZM19.4 22.35C18.4 22.35 17.48 21.96 16.65 21.2C15.81 20.4 15.15 19.36 14.65 18.1C14.18 16.83 13.95 15.48 13.95 14.05C13.95 11.85 14.33 9.78 15.1 7.85C15.9 5.88 16.86 4.21 18 2.85C19.13 1.48 20.21 0.53 21.25 0L21.3 0L23 1.6L23 2.29C22.16 3.06 21.38 4.16 20.65 5.6C19.91 7 19.54 8.73 19.54 10.8C19.54 11.86 19.7 12.73 20 13.4C20.29 14.06 20.75 14.8 21.35 15.6C21.85 16.23 22.21 16.78 22.45 17.25C22.68 17.71 22.8 18.28 22.8 18.95C22.8 19.95 22.46 20.76 21.8 21.4C21.16 22.03 20.36 22.35 19.4 22.35Z" fill="#FFFFFF" fill-opacity="1.000000" fill-rule="nonzero"/>
</svg>
